<svg id="Calque_1" data-name="Calque 1" xmlns="http://www.w3.org/2000/svg" viewBox="0 0 11.38 7.2"><defs><style>.cls-1{fill:#ff3e55;}</style></defs><title>arrow</title><path class="cls-1" d="M5.21,7.25,3.91,6h0l-.78-.78L1.06,3.1h0L.37,2.41a.22.22,0,0,1,0-.3l.69-.69h0l.13-.13L2,.46a.23.23,0,0,1,.31,0L5.9,4a.21.21,0,0,0,.3,0l.68-.68h0l1.8-1.8,1-1a.21.21,0,0,1,.3,0l.69.69.28.27.68.69a.21.21,0,0,1,0,.3l-.69.69h0L9.74,4.4,8.44,5.7h0L6.89,7.25A1.2,1.2,0,0,1,5.21,7.25Z" transform="translate(-0.31 -0.4)"/></svg>